<svg xmlns="http://www.w3.org/2000/svg" viewBox="0 0 720 970" role="img" aria-labelledby="title desc">
  <title id="title">Atena Studio portrait placeholder</title>
  <desc id="desc">A dark editorial portrait-style composition for a personal design portfolio.</desc>
  <rect width="720" height="970" fill="#0d1110"/>
  <rect x="34" y="34" width="652" height="902" fill="#141a18" stroke="#2d3430"/>
  <path d="M35 34h650v292H35z" fill="#42504c" opacity=".72"/>
  <path d="M92 730c48-178 154-290 290-290 134 0 230 112 258 290v206H92z" fill="#d9d2c6" opacity=".88"/>
  <path d="M154 470c24-126 108-224 220-224 124 0 218 104 226 238 8 140-78 256-218 256-136 0-254-118-228-270z" fill="#d8cec0"/>
  <path d="M138 382c14-132 100-232 242-232 148 0 246 92 264 214-64-58-138-86-224-84-112 2-204 42-282 102z" fill="#111"/>
  <path d="M172 438c-50 18-78 62-86 132-8 68 18 110 70 126 16-62 26-148 16-258z" fill="#d8cec0"/>
  <path d="M586 438c50 18 78 62 86 132 8 68-18 110-70 126-16-62-26-148-16-258z" fill="#d8cec0"/>
  <path d="M268 492c44 22 90 22 138 0" fill="none" stroke="#111" stroke-width="14" stroke-linecap="round" opacity=".72"/>
  <path d="M456 492c40 22 78 22 116 0" fill="none" stroke="#111" stroke-width="14" stroke-linecap="round" opacity=".72"/>
  <path d="M328 612c30 18 68 18 104 0" fill="none" stroke="#111" stroke-width="12" stroke-linecap="round" opacity=".55"/>
  <path d="M262 710c84 64 180 64 270 0" fill="none" stroke="#111" stroke-width="18" stroke-linecap="round" opacity=".76"/>
  <path d="M220 800h330l72 136H148z" fill="#f2f0eb" opacity=".9"/>
  <path d="M35 822c154 26 322 18 650-22v136H35z" fill="#080808" opacity=".38"/>
  <g opacity=".16" stroke="#c5c5c5">
    <path d="M35 164h650M35 294h650M35 424h650M35 554h650M35 684h650M35 814h650"/>
    <path d="M165 34v902M295 34v902M425 34v902M555 34v902"/>
  </g>
  <rect x="34" y="34" width="652" height="902" fill="none" stroke="#c5c5c5" stroke-opacity=".18"/>
</svg>
